<?xml version="1.0" encoding="utf-8"?>
<!-- Generator: Adobe Illustrator 27.0.1, SVG Export Plug-In . SVG Version: 6.00 Build 0)  -->
<svg version="1.1" id="Layer_1" xmlns="http://www.w3.org/2000/svg" xmlns:xlink="http://www.w3.org/1999/xlink" x="0px" y="0px"
	 viewBox="0 0 3514.7 2987" style="enable-background:new 0 0 3514.7 2987;" xml:space="preserve">
<style type="text/css">
	.st0{fill:none;}
</style>
<g>
	<path class="st0" d="M2891.4,221.6c-1.8,2.8-3.9,5.2-5.8,7.4c-1.8,2.1-3.4,3.9-4.6,5.9c4.5-1,9.4-1.6,14.2-1.1
		C2894.3,226.7,2893.3,223.3,2891.4,221.6z"/>
	<path class="st0" d="M60.4,1938.4c2.5,19.1,9.9,32.4,18.8,42.7C78.2,1965.4,70,1951.3,60.4,1938.4z"/>
	<path class="st0" d="M1678.6,244.5c-1.3-2.2-2.4-4.5-3.4-6.7c-0.7-1.5-1.3-2.9-1.9-4c-0.2,3.5-0.1,7.5,0,10.5c0,0.5,0,1,0,1.4
		C1675.3,245.4,1677.1,245,1678.6,244.5z"/>
	<path class="st0" d="M794.5,1805.5c3-8.7,2.2-17.1,0.7-23.2c-2.4-10.1-8.1-20.3-15.3-28.1C780.3,1779.5,785,1796,794.5,1805.5z"/>
	<path class="st0" d="M654.4,1867.5c10.4-37.9,4.9-89.3-14.1-124.4c-7.2-13.4-19.4-29.7-37.8-37.2
		C598.4,1773.1,618.9,1836.7,654.4,1867.5z"/>
	<path class="st0" d="M2119.3,480.6c-29.2-13.7-62.8-20.4-99.9-20.1c-12.4,0.1-24.1,2-36.6,3.9c-23.5,3.7-47.8,7.4-80.3,0.7
		c-47.4,25.6-89.9,75.5-114.2,133.9c-27.9,67.2-28.6,138.3-1.9,200v0c16.5,38,62.8,71.8,124.1,90.4c61.9,18.8,126.6,18.1,173-1.8
		c50.4-21.6,114.9-92.2,130.3-142.5c11.8-38.3,15.5-77.7,10.8-113.9c-4.7-35.8-17.6-68.8-37.5-95.4
		C2169.5,511.9,2146.6,493.4,2119.3,480.6z M2104.1,710.3c-9.1,19.2-23.8,35.7-42.6,47.8c-19.8,12.7-42.4,19.5-65.3,19.5
		c0,0-0.1,0-0.1,0c-25,0-49.2-8.3-69.9-23.8c-0.6-0.4-1.1-0.9-1.5-1.5c-23.6-30.5-28.5-73.4-12.8-111.9
		c14.6-35.9,43.1-60.2,76.4-65.1c0.5-0.1,1-0.2,1.6-0.2c0.4,0,0.7,0,1.1,0c44.5,0,110.5,23.9,120.6,69.5
		C2116.4,666.9,2113.9,689.7,2104.1,710.3z"/>
	<path class="st0" d="M2684.7,1399c17.4-64.4,38.7-117.7,65-163c10.2-17.7,26.1-37.2,42.9-57.8c8.3-10.2,16.9-20.8,25.1-31.5
		l3.2-4.2c22-28.7,52.2-68,75.7-78.3c29.5-12.9,62.4-15.6,94.2-18.2c36.9-3,72.1-5.9,102.4-23.3c-30-11.6-66.7-25.3-105.3-27.6
		c-7.5-0.4-16.1,0.6-25.2,1.8c-22.5,2.8-50.5,6.3-61.7-19.1c-1.4-3.1-0.6-6.7,1.8-9.1c20.5-19.3,48-31.2,74.6-42.7
		c37.5-16.2,73.1-31.6,89.2-65.8c-30.2-13.7-64.8-0.3-101.2,13.8c-34.5,13.3-70.1,27.1-102.1,15.4c-2.6-1-4.5-3.2-5.1-5.9
		c-0.5-2.7,0.4-5.5,2.4-7.4c8-7.4,18.3-13.3,29.2-19.5c27.5-15.7,44.3-27.1,40.8-49.2c-12.8-4.9-25.2,3.1-41,14.7
		c-10.5,7.7-19.5,14.4-28.9,13c-2.3-0.3-4.4-1.7-5.6-3.7c-0.4-0.7-0.8-1.5-1-2.3c-0.9,1.2-1.8,2.3-2.7,3.4
		c-34.6,43.8-90.9,74.9-154.5,85.3c-14.6,2.4-29.4,3.6-43.9,3.6c-16.6,0-32.9-1.5-48.5-4.6c-31.7-6.3-60.1-18.5-84.3-36.5
		c-42.6-31.5-71.4-87.4-81.1-157.3c-5.7-40.8-4.2-83.5,4.1-123.4c8.7-41.5,24.6-78.1,45.9-105.6c31.1-40.2,80.8-66.7,140.1-74.6
		c0.5-0.1,0.9-0.1,1.4-0.1c56.8-7.2,114.3,15,143.7,29c44.6,21.1,82.4,50.2,98.8,75.9c28.5,44.6,40.9,102.1,34.9,161.7
		c-4,40.5-16.4,80.3-34.9,113.9c7-6,15.2-11.7,23.6-17.5c17-11.8,34.6-23.9,42.4-38.9c12.3-23.6,14.2-69.3,16.3-117.8
		c1-22.3,1.9-45.4,3.9-68.8l1.1-12.9c8.1-95.9,15.1-178.7,11.5-260c-0.5-11.5-0.7-25.2-1-39.8c-0.6-35.7-1.4-80.1-6.7-116
		c-7.1-48.1-19.6-61.6-28.8-64.5c-36.3-11.3-58.5,30.1-78.1,73.5c-3.5,7.9-6.6,14.6-9.5,19.7c-8.5,15.1-19.6,28.5-30.3,41.5
		c-16,19.3-31.1,37.5-31.9,56c-0.1,2.2-1,4.2-2.6,5.6c-1.6,1.4-3.7,2.2-5.9,2c-65-4.3-134.6-13.9-208.2-24.1
		c-111.3-15.4-226.4-31.4-338.9-30.6c-65,0.5-132,7.7-196.8,14.7c-74.8,8.1-152.1,16.4-228.9,14.8c-2.1,0-4.1-0.9-5.5-2.4
		c-8.3-8.4-16.3-17.2-24.1-25.8c-43-47.1-83.7-91.6-172-90c-4.7,7.2-11.1,12.3-16.9,16.8c-3.3,2.6-6.5,5.2-9.3,7.9
		c0.1,34.7,5.5,75.3,10.8,114.6c4.6,34.5,9.4,70.2,10.3,101.1c0.1,2.4,0.3,5.6,0.5,9.2c1.7,25.5,2.1,44-8.6,50.2
		c-1.6,0.9-3.7,1.7-6.3,1.8c21.2,96.5,37.7,209.2,43.6,298c5.3,4.1,12.4,6.9,19.9,9.9c18.5,7.4,41.4,16.6,39.4,49.4
		c-0.1,2-1,3.9-2.5,5.3c-16.1,15.2-35.2,4.9-47.9-1.9c-2.6-1.4-6.1-3.3-8.6-4.3v37.7c9.5,4.6,22.2,6.8,34.7,9
		c25,4.4,53.3,9.3,61.8,35.4c0.5,1.5,0.5,3,0.1,4.5c-3.9,14.6-18.8,17.2-29.7,19.1c-9.2,1.6-15.4,3-16.9,6.9
		c-0.8,2.1-2.5,3.8-4.6,4.6c-2.1,0.8-4.5,0.7-6.5-0.3c-5-2.5-10.5-5.4-16.4-8.4c-43.1-22.5-108.3-56.4-165.1-53.9
		c-16.9,0.7-58.9,14.5-59.8,30.3c-0.5,9.7,11.6,21.1,34.2,32.1c24.5,12,53.7,20,65.1,22.9c12.9,3.2,28.9,4.9,44.4,6.6
		c19.3,2,39.3,4.2,54.5,9.4c19.4,6.7,29.3,18,29.4,33.9c0,4-3,7.5-7,8c-14.8,1.9-31.6,2.5-49.3,3.2c-31.6,1.3-64.3,2.6-90.5,10.7
		c-25.7,7.9-40.4,21-45.8,40.8c29.5,11.3,71.9,9.9,113.1,8.5c37.4-1.2,72.6-2.4,99.1,5.5c2.5,0.8,4.6,2.7,5.4,5.3
		c0.8,2.5,0.3,5.3-1.4,7.4c-17.4,21.8-35,28.9-67.6,36.5c-6.6,1.5-13.6,2.3-20.4,3c-24.3,2.6-35.1,5.3-36.4,19.8
		c14.8,13.8,38,8.3,62.5,2.5c21.7-5.2,44.2-10.5,63-2.6c2,0.8,3.6,2.5,4.4,4.5c0.8,2,0.7,4.3-0.2,6.3c-9.2,19.9-31.3,25.9-50.7,31.3
		c-2.3,0.6-4.6,1.3-6.9,1.9c-175.8,203.8-302.7,407.5-387.9,622.6c-50.1,126.3-86.6,259.4-108.5,395.6
		c-23.8,147.7-31.4,304.4-22.6,465.8c0.1,2.2-0.7,4.3-2.2,5.9c-1.5,1.6-3.6,2.5-5.8,2.5c-3.5,0-7,0.1-10.5,0.1
		c-28.2,0.3-54.9,0.5-71.9-4.6c-63.5-19.1-119-44.9-169.6-78.9c-45.9-30.9-86.8-67.9-124.9-113.2c-59-69.9-92.8-163.2-125.5-253.5
		c-6.2-17.2-12.7-35-19.2-52.2c-14.1-37.4-26.5-77.9-38.5-117c-25.5-83.1-52-169.1-95.8-233.6c-23.3-34.4-49.6-60-80.2-78.3
		c-33.7-20.2-72-31.1-116.8-33.5c-52.9,40.2-59.7,110.5-53.5,210.5c4.8,78.1,20.4,154.3,46.4,226.7
		c24.5,68.4,58.2,133.4,100.2,193.2c40.1,57.1,87.4,109.1,140.6,154.3c51.7,44,108.1,81,167.6,110c76.6,37.3,156.2,51.8,248.5,68.7
		c18.5,3.4,37.6,6.9,57.1,10.6c11.1,2.2,21.4,6.4,31.4,10.5c11.9,4.9,23.2,9.6,35.1,10.5c10.2,0.8,21.6-0.4,33.7-1.6
		c28.1-2.9,60-6.1,84.9,16.3c1.9,1.7,2.8,4.1,2.6,6.6c-0.2,2.5-1.6,4.7-3.7,6.1c-4.3,2.7-8.7,5.4-13.4,8.2
		c-17.6,10.6-37.6,22.7-49.1,38.5c-12.1,16.6-13.1,35.1-3.3,58c159.2,49.3,361.1,58.9,556.5,68.3c39.8,1.9,80.9,3.9,120.8,6.1
		c36.9,2.1,73.2,8,108.2,13.6c51.8,8.3,100.8,16.2,149.2,12.3c1.6-32.5-8.2-54.8-30.5-70.1c-22-15-54.1-21.7-85.2-28.2
		c-12.9-2.7-26.3-5.5-38.9-8.9c-3-0.8-5.3-3.3-5.8-6.4c-13.1-78.5-40.7-144.3-84.4-201.3c-39-50.8-90-93.4-156-130.2
		c-3-1.7-4.6-5-4-8.4c0.6-3.4,3.3-6,6.6-6.5c90-14,144.3,55.6,184,106.5c1.6,2,3.1,4,4.7,6c52.9,67.4,85.6,134.5,97.4,199.4
		c96.2,4.8,151.5,49.9,164.5,134.4c15.7-0.4,33.7-0.9,52.5-1.5c37-1.1,78.2-2.4,111.3-2.5c-34.5-54.6-65.5-115.7-95.5-175
		c-11.7-23.1-23.8-47-36-70.3c-17.5-33.4-39.4-65.9-60.6-97.3c-18.5-27.4-37.6-55.6-53.1-83.7c-1.3-2.3-3.3-5.4-5.5-8.6
		c-5.6-8.3-12.6-18.7-15.7-29.6c-5.3-18.2,2.9-29.2,10.7-35.2c1.5-1.1,3.2-1.7,4.9-1.7c2.2,0,4.3,0.9,5.9,2.6
		c75.7,82.8,135.4,194.2,193.2,301.9c22.4,41.8,45.6,85,69,124.9c4.1,7,8.2,15.2,12.5,23.8c25.2,50,48.1,87.2,91.1,71.5
		c12.3-125.4-7.2-249.6-26-369.8c-14.5-92.4-29.4-187.9-29.3-281.9c0-3.9,2.9-7.3,6.7-7.9c3.9-0.6,7.6,1.7,8.9,5.4
		c54.3,166,84.8,370,93,623.6c11.4,17,28,35.5,43.9,31.1c33.4-9.1,59.2-105.5,62.3-168c7-140.8-5.2-286-17-426.5
		c-9.7-115.6-18.9-224.7-16.7-323.3c0.1-4,3.2-7.4,7.2-7.8c4-0.4,7.7,2.3,8.6,6.2c22.7,101.9,52.5,260.3,64.9,435.9
		c12.1,170.7,5.3,320.3-20.3,444.9c32.3-4.9,71.1-3.3,108.8-1.7c66.2,2.8,134.5,5.6,158.8-27.8c-14.2-55.3-76.7-93.6-191-117
		c-3.7-0.8-6.3-4-6.4-7.7c-1.6-121.4,4.2-236.7,10.5-358.8c2.1-42,4.4-85.5,6.3-130.3c2.7-61,4.7-123.6,6.6-184.1
		c5-155.4,10.1-316.2,27.4-457.2C2657.2,1520.9,2669.2,1456.1,2684.7,1399z M2867.3,182.3c14.8-8.7,31.7-8.6,46.3,0.3
		c10.7,6.5,35.4,27.9,32.4,84.9c-0.1,2.3-1.2,4.4-3,5.8c-10.6,8.5-22.7,11.3-35,11.3c-12,0-24.3-2.6-35.8-5.1
		c-11.2-2.4-21.8-4.7-30.9-4.4c-4.4,0.1-8-3.3-8.2-7.7C2831.5,227.6,2844.3,195.8,2867.3,182.3z M1645.5,300.3
		c-0.4,0-0.7,0.1-1.1,0.1c-1.8,0-3.5-0.6-4.9-1.7c-1.7-1.3-2.8-3.2-3.1-5.4c-0.3-2.3-0.6-4.8-0.9-7.5c-2.1-16.5-5-39.2-3.1-58.7
		c1.8-17.8,8.7-39.8,31.7-43.8c11-1.9,21.8,1.2,31.2,9c17.2,14.3,28.5,43.6,28.8,74.6c0,2.1-0.8,4.2-2.3,5.7
		c-0.7,0.7-1.6,1.3-2.5,1.7C1693.7,288.8,1671,296.8,1645.5,300.3z M2250.1,779.6c-20.8,57.8-87.1,126.1-147.7,152.1
		c-31.8,13.7-68.4,20.8-106.7,20.8c-4.5,0-9.1-0.1-13.6-0.3c-40.1-1.8-81-11.1-118.4-27.1c-62.6-26.8-108.5-69.1-125.9-116
		c-16.9-45.4-22.7-96-16.7-146.1c5.8-48.7,22.2-95.2,47.6-134.4c42.8-66,106.1-104.9,178.3-109.5c0.1,0,0.2,0,0.3,0
		c67.8-4.3,126.5,2.5,174.7,20.3c57.1,21,97.3,56.9,119.4,106.7C2266.2,601.8,2279.4,698.6,2250.1,779.6z M2425.8,893.1
		c-10,18-30.1,30.9-48,30.9c-0.2,0-0.4,0-0.6,0c-11.1-0.2-17.8-8.6-23.2-15.4c-3.9-4.9-7.5-9.5-11.4-10c-2.5-0.3-7,3.2-10.9,6.2
		c-6.9,5.3-15.6,12-26.8,10.7c-14.8-1.7-26.2-9.6-32.2-22.2c-6.9-14.6-4.9-33.5,5.2-49.1c1.9-3,5.6-4.3,9-3.3
		c10.7,3.2,14.4,13,17.1,20.2c1.4,3.7,2.7,7.3,4.5,9.1c2.9,0,5-0.5,6.3-1.7c4.4-4,4.2-16.7,4-27.9c0-2.4-0.1-4.9-0.1-7.4
		c-32.9-11.6-38.9-31-39.4-41.9c-1-20.7,15.4-42,39.9-51.8c27.9-11.1,56.6-3.9,76.8,19.5c0.7,0.9,1.3,1.9,1.6,3
		c6.1,20.8,4.7,39.3-4.1,52c-5.8,8.4-14.4,13.9-25.3,16.2c-0.6,18.1,0.4,36.6,7.6,47.1c6-2.4,10.5-6.7,15.5-11.5
		c6.6-6.4,14.2-13.6,26.1-16.6c3.3-0.8,6.8,0.5,8.7,3.4C2433.7,864.3,2433.6,879.1,2425.8,893.1z"/>
	<path class="st0" d="M2838.1,561.5c-13.3-25.4-41.1-49.5-76.4-66.3c-37.4-17.7-79.3-25.6-118-22.2c-35.2,3.1-71.3,18.4-101.6,43
		c-28.2,22.9-50.1,52.8-60,82.2c-10.2,30.1-14.2,61.1-11.9,92.1c2.2,29.3,10,57.3,23.1,83.1c23.7,46.8,63.6,82,109.4,96.7
		c89.9,12.7,172.6-20.7,221.3-89.6c21.9-31,35.1-67.1,38.1-104.4c3.1-38.8-4.9-78.1-23.4-113.7
		C2838.5,562.2,2838.3,561.8,2838.1,561.5z M2772.9,702.5c-4.2,21.9-18,41.8-38.9,55.9c-17.6,11.8-38.6,18.3-58.8,18.3
		c-2.6,0-5.2-0.1-7.7-0.3c-15.3-1.3-38-11.3-56.5-24.8c-30.6-22.4-40.5-46-43.4-61.8c-13.2-71.7,27.3-115.5,73.3-127.2
		c0.4-0.1,0.8-0.2,1.3-0.2c35.9-8.8,70-6.7,89.3,5.5C2758.4,584.9,2781.2,659.2,2772.9,702.5z"/>
	<path class="st0" d="M2355.7,790.9c3-0.6,7.7-1.9,9.1-4.7c-4.1-7.8-14.2-11.4-23-11.5c-7.8-0.1-17.8,2.7-22.7,10.3
		C2324.2,789.1,2341.8,793.7,2355.7,790.9z"/>
	<path d="M2841.2,275.1c9.2-0.2,19.7,2,30.9,4.4c11.5,2.5,23.8,5.1,35.8,5.1c12.3,0,24.3-2.8,35-11.3c1.8-1.4,2.9-3.5,3-5.8
		c3-57-21.6-78.3-32.4-84.9c-14.6-8.9-31.4-9-46.3-0.3c-22.9,13.5-35.7,45.2-34.3,85C2833.1,271.8,2836.8,275.2,2841.2,275.1z
		 M2880.9,234.9c1.2-1.9,2.8-3.7,4.6-5.9c1.9-2.2,4-4.6,5.8-7.4c1.8,1.6,2.9,5.1,3.7,12.1C2890.4,233.3,2885.5,233.9,2880.9,234.9z"
		/>
	<path d="M1721.8,272.7c1.5-1.5,2.3-3.6,2.3-5.7c-0.3-31-11.6-60.2-28.8-74.6c-9.4-7.8-20.2-11-31.2-9c-23,3.9-29.9,26-31.7,43.8
		c-2,19.5,1,42.1,3.1,58.7c0.3,2.7,0.7,5.2,0.9,7.5c0.3,2.1,1.4,4.1,3.1,5.4c1.4,1.1,3.1,1.7,4.9,1.7c0.4,0,0.7,0,1.1-0.1
		c25.5-3.5,48.3-11.5,73.8-25.9C1720.2,274,1721,273.5,1721.8,272.7z M1673.3,233.8c0.6,1.1,1.2,2.4,1.9,4c1,2.2,2.1,4.5,3.4,6.7
		c-1.5,0.5-3.3,0.9-5.3,1.3c0-0.5,0-1,0-1.4C1673.2,241.3,1673.1,237.3,1673.3,233.8z"/>
	<path d="M2122,439.5c-48.1-17.7-106.9-24.5-174.7-20.3c-0.1,0-0.2,0-0.3,0c-72.2,4.6-135.5,43.5-178.3,109.5
		c-25.4,39.2-41.9,85.6-47.6,134.4c-5.9,50.1-0.1,100.7,16.7,146.1c17.4,46.9,63.3,89.2,125.9,116c37.3,16,78.2,25.4,118.4,27.1
		c4.6,0.2,9.1,0.3,13.6,0.3c38.2,0,74.9-7.1,106.7-20.8c60.6-26.1,126.8-94.3,147.7-152.1c29.3-81,16.1-177.8-8.6-233.5
		C2219.4,496.4,2179.2,460.5,2122,439.5z M2213.9,745c-15.4,50.3-79.9,120.9-130.3,142.5c-46.5,19.9-111.1,20.6-173,1.8
		c-61.2-18.6-107.6-52.4-124.1-90.4v0c-26.7-61.7-26-132.8,1.9-200c24.2-58.4,66.8-108.3,114.2-133.9c32.6,6.7,56.8,2.9,80.3-0.7
		c12.4-1.9,24.1-3.8,36.6-3.9c37.1-0.4,70.7,6.4,99.9,20.1c27.3,12.8,50.2,31.4,67.9,55.2c19.8,26.6,32.8,59.6,37.5,95.4
		C2229.5,667.4,2225.7,706.8,2213.9,745z"/>
	<path d="M2731.5,567.8c-19.3-12.2-53.4-14.3-89.3-5.5c-0.4,0-0.9,0.1-1.3,0.2c-46,11.7-86.5,55.5-73.3,127.2
		c2.9,15.8,12.8,39.4,43.4,61.8c18.5,13.6,41.2,23.6,56.5,24.8c2.6,0.2,5.1,0.3,7.7,0.3c20.2,0,41.2-6.5,58.8-18.3
		c20.9-14.1,34.7-33.9,38.9-55.9C2781.2,659.2,2758.4,584.9,2731.5,567.8z"/>
	<path d="M1990.9,575.1c-0.4,0-0.7,0-1.1,0c-0.5,0-1.1,0.1-1.6,0.2c-33.2,4.9-61.8,29.2-76.4,65.1c-15.7,38.6-10.8,81.5,12.8,111.9
		c0.4,0.6,1,1.1,1.5,1.5c20.7,15.6,44.9,23.8,69.9,23.8c0,0,0.1,0,0.1,0c22.9,0,45.5-6.7,65.3-19.5c18.8-12.1,33.5-28.6,42.6-47.8
		c9.8-20.7,12.3-43.4,7.4-65.8C2101.4,599,2035.4,575.1,1990.9,575.1z"/>
	<path d="M2417.5,849.2c-11.9,3-19.5,10.2-26.1,16.6c-5,4.8-9.5,9.1-15.5,11.5c-7.2-10.5-8.2-28.9-7.6-47.1
		c10.9-2.3,19.6-7.8,25.3-16.2c8.8-12.8,10.2-31.2,4.1-52c-0.3-1.1-0.9-2.1-1.6-3c-20.2-23.3-48.9-30.6-76.8-19.5
		c-24.5,9.8-40.9,31.1-39.9,51.8c0.5,10.9,6.4,30.3,39.4,41.9c0,2.5,0,4.9,0.1,7.4c0.2,11.2,0.4,23.9-4,27.9
		c-1.3,1.2-3.4,1.8-6.3,1.7c-1.8-1.9-3.2-5.4-4.5-9.1c-2.7-7.1-6.4-16.9-17.1-20.2c-3.4-1-7.1,0.3-9,3.3
		c-10.1,15.7-12.2,34.5-5.2,49.1c5.9,12.6,17.4,20.5,32.2,22.2c11.3,1.2,19.9-5.4,26.8-10.7c4-3,8.4-6.5,10.9-6.2
		c3.9,0.5,7.6,5.1,11.4,10c5.4,6.8,12.1,15.2,23.2,15.4c0.2,0,0.4,0,0.6,0c17.9,0,38-12.9,48-30.9c7.8-14,7.9-28.7,0.4-40.4
		C2424.3,849.8,2420.9,848.4,2417.5,849.2z M2341.8,774.7c8.8,0.1,19,3.7,23,11.5c-1.4,2.7-6.1,4.1-9.1,4.7
		c-13.9,2.8-31.5-1.8-36.7-5.9C2324,777.4,2334.1,774.7,2341.8,774.7z"/>
	<path d="M645.1,1922.5c2.5,0.2,4.9,0.3,7.2,0.3c25.9,0,44.8-12.9,55-37.5c11.9-28.8,10.7-72.5-3.2-119.9
		c-13.5-45.9-36.4-85.7-61.3-106.5c-22.8-19-47.2-21.9-68.7-8.1c-0.3,0.2-0.5,0.4-0.8,0.6c-18,14.8-28.9,39.5-31.4,71.4
		c-2.2,27.5,1.9,59.8,11.6,91C568.3,1861.5,601.3,1918.7,645.1,1922.5z M602.5,1705.9c18.4,7.4,30.6,23.8,37.8,37.2
		c19,35.1,24.5,86.5,14.1,124.4C618.9,1836.7,598.4,1773.1,602.5,1705.9z"/>
	<path d="M735.9,1825.2c9.7,20.4,23,33.5,38.4,38c8.1,2.3,15.3,3.3,21.8,3.3c17.1,0,28.8-6.9,36.2-13.8c19.4-18.1,27-52.3,19.4-87.4
		c-2.7-12.7-10-25.8-21.1-37.8c-9.4-10.2-21.5-19.6-34-26.4c-8.4-4.6-29.5-14.6-44.1-9c0,0,0,0,0,0c-20.9,8-32.4,35.2-30.9,72.9
		C722.5,1786.4,727.6,1807.7,735.9,1825.2z M794.5,1805.5c-9.5-9.4-14.2-25.9-14.6-51.4c7.2,7.8,12.9,18,15.3,28.1
		C796.7,1788.4,797.5,1796.8,794.5,1805.5z"/>
	<path d="M3514.4,597.8c-3.7-12.8-12.6-20.7-26.5-23.5c-10.6-2.2-22.2-1-32.4,0c-4.5,0.4-8.7,0.8-12,0.9
		c-81.2,0.6-162.1,13.5-247.5,39.4c-68.5,20.8-128.7,46.5-182.1,69.9c2.1-45.5,5.9-88.1,9.8-132.9c4.1-47.2,8.4-96,10.7-149.1
		c2.7-62.2,4.9-142.8-2.1-215.6c-4.1-41.9-10.9-77.2-20.2-104.8c-11.3-33.4-26.7-56.8-45.9-69.7c-23.6-15.9-52.7-16.2-86.3-0.9
		c-30.9,14.1-56,60.5-80.4,105.5c-21.9,40.4-44.5,82.2-65.8,87.9c-12.6,3.3-45.4-6.1-71.8-13.6c-17.4-4.9-33.8-9.6-47-11.9
		c-286.6-49.4-585.7-27.7-787.2-0.5c-15.4-11.2-30.3-26.4-46.1-42.5c-23.2-23.7-47.3-48.2-77.3-64.8
		c-34.8-19.2-71.5-23.9-112.2-14.3c-17.4,4.1-64.6,37.1-73.3,68.9c-11.4,41.6,1,96,12,144.1c8.2,35.7,15.9,69.5,13.1,93
		c-0.8,7.2-3.4,11.2-6,15.6c-3,4.8-6.4,10.3-6.6,18.9c-1,47.8,8.9,95.1,18.6,140.7c9.4,44.4,18.3,86.5,16.1,125
		c-27.4-13.9-55.7-28.7-83.1-43c-69.4-36.2-141.1-73.7-210.2-103.6c-5.2-2.3-10.7-4.9-16.5-7.6c-29-13.8-65.1-30.9-99-17.8
		c-3.5,1.3-5.6,4.9-5,8.6c6,40.4,42.7,57.6,75,72.8c9.3,4.4,18.1,8.5,25.8,13c47.2,27.6,95.7,52.2,142.6,76
		c29.4,14.9,59.8,30.4,89.4,46.3c5.1,2.7,10.5,5.5,16.3,8.4c29.1,14.6,61.8,30.8,70.2,59c-70.1-12.7-139.3-26.2-212.3-40.4
		c-13.7-2.7-27.5-5.4-41.6-8.1c-17.8-3.5-36.1-7.7-53.8-11.8c-49.3-11.5-95.8-22.3-134-17.8c-4.3,0.5-12.7,4-19,6.9
		c-14.7,6.7-16.1,8.8-17.1,11.6c-1.1,2.9-0.4,6.1,1.7,8.4c2.4,2.5,5.3,2.8,8,2.4c1.9,2.2,3.4,5.4,5,8.8c2.1,4.3,4.4,9.2,8.1,13.3
		c1.1,1.2,2.5,2,4.1,2.3c93.8,21.5,186.1,44.3,265.4,64.2c-13.4,18.1-17.6,38.3-12,58.9c8.8,32.7,41.4,61.8,73.4,76.4
		c-38.4,22.3-49.2,58.5-41.9,87.4c7.8,31.1,37.8,59.7,88.1,59.7c1.6,0,3.2,0,4.9-0.1c-4.4,17.2-1.9,33.4,7.6,48.4
		c6.6,10.4,16.2,19.8,29.4,28.6c-67.5,73.3-127.8,155.6-184.1,251.3c-107.1,182.1-185,354.9-238.2,528.3
		c-32.3,105.2-55.1,211-67.9,314.4c-13.7,110.3-16.3,220.9-7.8,329.1c-87.9-33.8-157.4-74.7-212.3-124.7
		c-61.6-56.2-106.7-125.4-137.8-211.6c-9.4-26-20.9-52-32.1-77.1c-10.9-24.5-22.1-49.7-31.1-74.6c-14.7-40.6-27-83.2-38.9-124.4
		c-20.7-71.6-40.3-139.2-71-196.9c-23.5-44.3-64.4-88.8-109.4-119.1c-38.9-26.2-100.4-55.3-172.7-45.2c-23,3.2-42.7,15.5-58.6,36.5
		c-13.6,18-24.4,42.4-32.2,72.8c-17,66.2-15.4,142.1-13,181.4c1.4,21.8,3.5,43.4,6.5,64.9c-3.7-16.5-9.3-33.7-16.4-49.8
		c-9.3-21-29-57.8-57.3-67.2c-14.3-4.8-36-4.2-57.8,25.9c-0.8,1.1-1.3,2.3-1.4,3.6C-6.9,1953,18.3,2018.3,59,2041
		c9.9,5.5,20.2,8.2,30.6,8.2c15.9,0,32.1-6.4,47.3-19.1c1.8-1.5,2.8-3.7,2.9-6c0.1-4.5-0.1-9.3-0.5-14.2
		c13,74.5,35.8,146.5,68.1,215c43.4,92.2,102.6,175.3,175.9,247.1c83.4,81.6,177.3,144.6,279.3,187.3
		c104.8,43.9,221.8,68,348.1,71.6c-6.2,12.7-10,29.5-10.6,48.2c-0.9,25.7,4.2,49.8,13.9,66.2c22.1,37.1,102.5,51.7,167,63.4
		c6.9,1.3,13.4,2.4,19.6,3.6c127.4,24,281.5,30.6,417.4,36.4c43.2,1.9,83.9,3.6,122.9,5.8c36.8,2.1,76.9,9.4,115.6,16.4
		c60,10.9,116.7,21.2,160.2,13c7.7-1.4,14.3-5.9,21.4-10.6c6.6-4.4,13.5-9,20.9-10.6c25.5-5.6,57.1-4,87.6-2.5
		c34.5,1.7,67.3,3.4,93.5-4.4c26.3,29.4,72,39.3,111,23.4c3.2-1.3,7.7-4.5,14.6-9.6c4.2-3.1,11.5-8.4,15.2-10.3
		c1.7,1.7,4.1,4.9,5.7,7c4.2,5.5,8.1,10.7,13,12.9c12.7,5.6,23.6,7.8,33.1,7.8c22,0,36.9-11.9,50.5-22.8
		c9.9-7.9,19.3-15.4,30.9-18.2c35.2-8.5,79-5.2,125.3-1.8c53.5,4,108.9,8.1,153.5-6.8c14.9-5,25.9-12.4,36.6-19.6
		c12.3-8.3,22.9-15.5,38-18c4.1-0.7,7-4.5,6.6-8.6c-5.8-60.6-30.5-107.5-75.7-143.5c-40.3-32.1-92.4-51.9-139-67.8l3.1-80.3
		c9.5-244,18.5-474.4,30.3-735.2c10.7-235.3,27.4-458.2,112.7-598.7c7.2-11.9,18.8-24.5,31.1-37.9c10.9-11.9,22.1-24.1,31.8-37.3
		c5.1-7,10.3-14.9,15.2-22.4c14-21.4,28.4-43.5,44.8-50.8c16.2-7.2,46.6-10.6,78.8-14.1c35.3-3.9,75.3-8.2,106.1-18.9
		c37.4-13,56.2-34.2,55.8-62.9c-0.6-42.4-41.5-54.7-77.6-65.7c-10-3-20.3-6.1-29.5-9.8c35.4-17.4,65.5-42.8,68.9-94.4
		c58.7-8.8,108.9-15.4,153.2-20.1c12-1.3,24.9-1.6,38.5-1.9c21.9-0.5,44.5-1.1,63.9-5.9c23.4-5.8,38.8-17.1,47.1-34.6
		c1.4-2.9,0.9-6.3-1.2-8.7c-20.9-24.3-56.9-24-88.7-23.8c-6.4,0-12.5,0.1-18.3-0.1c-71-1.9-138,7.3-202.9,16.2
		c-39.8,5.4-77.8,10.6-113,12.6c44.3-30.2,101.3-56.5,173.3-80.1c74.3-24.4,154.4-42.8,231.9-60.6c10.2-2.3,20.3-4.7,30.4-7
		c4-0.9,9.3-1.5,14.9-2.1c10.4-1.1,22.1-2.4,32.1-6.5c12.9-5.4,20.4-14.6,22.3-27.5C3514.8,600,3514.7,598.9,3514.4,597.8z
		 M79.2,1981.1c-8.8-10.3-16.2-23.7-18.8-42.7C70,1951.3,78.2,1965.4,79.2,1981.1z M2613.8,2238.2c-2,44.9-4.2,88.3-6.3,130.3
		c-6.2,122.1-12.1,237.4-10.5,358.8c0.1,3.8,2.7,7,6.4,7.7c114.3,23.4,176.9,61.7,191,117c-24.3,33.4-92.7,30.5-158.8,27.8
		c-37.7-1.6-76.5-3.2-108.8,1.7c25.6-124.6,32.4-274.2,20.3-444.9c-12.4-175.6-42.2-333.9-64.9-435.9c-0.9-3.9-4.6-6.6-8.6-6.2
		c-4,0.4-7.1,3.7-7.2,7.8c-2.2,98.6,7,207.7,16.7,323.3c11.8,140.4,24,285.7,17,426.5c-3.1,62.4-29,158.9-62.3,168
		c-16,4.3-32.5-14.1-43.9-31.1c-8.3-253.6-38.7-457.6-93-623.6c-1.2-3.7-5-6-8.9-5.4c-3.9,0.6-6.7,4-6.7,7.9
		c-0.1,93.9,14.9,189.5,29.3,281.9c18.8,120.2,38.3,244.4,26,369.8c-43,15.7-65.9-21.5-91.1-71.5c-4.3-8.6-8.5-16.8-12.5-23.8
		c-23.4-40-46.5-83.2-69-124.9c-57.8-107.7-117.6-219.1-193.2-301.9c-1.6-1.7-3.7-2.6-5.9-2.6c-1.7,0-3.4,0.5-4.9,1.7
		c-7.8,6-16,17-10.7,35.2c3.1,10.8,10.1,21.2,15.7,29.6c2.2,3.2,4.2,6.3,5.5,8.6c15.5,28.1,34.6,56.4,53.1,83.7
		c21.2,31.4,43.2,63.9,60.6,97.3c12.2,23.3,24.3,47.2,36,70.3c30,59.3,60.9,120.4,95.5,175c-33.1,0.2-74.3,1.4-111.3,2.5
		c-18.8,0.6-36.8,1.1-52.5,1.5c-13-84.4-68.3-129.6-164.5-134.4c-11.8-64.9-44.5-132-97.4-199.4c-1.5-2-3.1-4-4.7-6
		c-39.7-50.8-94.1-120.4-184-106.5c-3.4,0.5-6,3.1-6.6,6.5c-0.6,3.4,1,6.7,4,8.4c66,36.8,117.1,79.4,156,130.2
		c43.7,56.9,71.3,122.7,84.4,201.3c0.5,3.1,2.8,5.6,5.8,6.4c12.6,3.4,26,6.2,38.9,8.9c31.1,6.5,63.3,13.2,85.2,28.2
		c22.4,15.2,32.1,37.6,30.5,70.1c-48.5,3.9-97.5-4-149.2-12.3c-35-5.6-71.3-11.5-108.2-13.6c-39.9-2.3-81-4.2-120.8-6.1
		c-195.3-9.3-397.3-19-556.5-68.3c-9.8-22.8-8.7-41.3,3.3-58c11.5-15.8,31.5-27.9,49.1-38.5c4.7-2.8,9.2-5.5,13.4-8.2
		c2.1-1.3,3.5-3.6,3.7-6.1c0.2-2.5-0.8-4.9-2.6-6.6c-24.9-22.4-56.7-19.1-84.9-16.3c-12.1,1.2-23.4,2.4-33.7,1.6
		c-12-0.9-23.2-5.5-35.1-10.5c-9.9-4.1-20.2-8.4-31.4-10.5c-19.5-3.8-38.6-7.3-57.1-10.6c-92.2-16.9-171.9-31.4-248.5-68.7
		c-59.5-29-115.9-66-167.6-110c-53.2-45.3-100.5-97.2-140.6-154.3c-42-59.8-75.7-124.8-100.2-193.2
		c-25.9-72.4-41.5-148.7-46.4-226.7c-6.2-100,0.6-170.3,53.5-210.5c44.9,2.3,83.1,13.3,116.8,33.5c30.6,18.3,56.8,43.9,80.2,78.3
		c43.8,64.6,70.3,150.5,95.8,233.6c12,39.2,24.5,79.6,38.5,117c6.5,17.2,12.9,35,19.2,52.2c32.7,90.3,66.6,183.7,125.5,253.5
		c38.2,45.3,79,82.3,124.9,113.2c50.6,34,106,59.8,169.6,78.9c17,5.1,43.7,4.9,71.9,4.6c3.5,0,7-0.1,10.5-0.1c2.2,0,4.3-0.9,5.8-2.5
		c1.5-1.6,2.3-3.7,2.2-5.9c-8.8-161.4-1.2-318.2,22.6-465.8c22-136.2,58.5-269.4,108.5-395.6c85.3-215.1,212.2-418.8,387.9-622.6
		c2.3-0.6,4.6-1.3,6.9-1.9c19.4-5.3,41.5-11.4,50.7-31.3c0.9-2,1-4.2,0.2-6.3c-0.8-2-2.4-3.6-4.4-4.5c-18.9-7.9-41.3-2.6-63,2.6
		c-24.5,5.8-47.8,11.4-62.5-2.5c1.4-14.5,12.2-17.2,36.4-19.8c6.8-0.7,13.9-1.5,20.4-3c32.7-7.6,50.2-14.7,67.6-36.5
		c1.7-2.1,2.2-4.8,1.4-7.4c-0.8-2.5-2.8-4.5-5.4-5.3c-26.5-7.9-61.7-6.7-99.1-5.5c-41.1,1.4-83.6,2.8-113.1-8.5
		c5.3-19.8,20-32.9,45.8-40.8c26.2-8.1,58.9-9.4,90.5-10.7c17.8-0.7,34.5-1.4,49.3-3.2c4-0.5,7-3.9,7-8c-0.1-15.8-10-27.2-29.4-33.9
		c-15.2-5.2-35.2-7.3-54.5-9.4c-15.5-1.6-31.5-3.3-44.4-6.6c-11.4-2.9-40.6-10.9-65.1-22.9c-22.6-11.1-34.7-22.5-34.2-32.1
		c0.8-15.8,42.8-29.6,59.8-30.3c56.8-2.5,122,31.5,165.1,53.9c5.9,3,11.4,5.9,16.4,8.4c2,1,4.4,1.1,6.5,0.3c2.1-0.8,3.8-2.5,4.6-4.6
		c1.5-3.9,7.6-5.3,16.9-6.9c10.9-1.9,25.8-4.6,29.7-19.1c0.4-1.5,0.4-3.1-0.1-4.5c-8.5-26.1-36.8-31-61.8-35.4
		c-12.4-2.2-25.2-4.4-34.7-9v-37.7c2.5,1,6,2.9,8.6,4.3c12.7,6.8,31.8,17.1,47.9,1.9c1.5-1.4,2.4-3.3,2.5-5.3
		c2-32.7-20.9-42-39.4-49.4c-7.5-3-14.6-5.9-19.9-9.9c-5.9-88.9-22.4-201.6-43.6-298c2.6-0.1,4.7-0.8,6.3-1.8
		c10.7-6.2,10.3-24.7,8.6-50.2c-0.2-3.6-0.5-6.8-0.5-9.2c-1-30.9-5.7-66.6-10.3-101.1c-5.2-39.3-10.7-79.9-10.8-114.6
		c2.7-2.8,5.9-5.3,9.3-7.9c5.8-4.6,12.2-9.7,16.9-16.8c88.3-1.6,129,42.9,172,90c7.8,8.5,15.8,17.3,24.1,25.8
		c1.5,1.5,3.5,2.4,5.5,2.4c76.9,1.6,154.2-6.8,228.9-14.8c64.8-7,131.7-14.2,196.8-14.7c112.5-0.8,227.6,15.2,338.9,30.6
		c73.7,10.2,143.3,19.9,208.2,24.1c2.1,0.1,4.3-0.6,5.9-2c1.6-1.4,2.6-3.5,2.6-5.6c0.8-18.5,15.9-36.7,31.9-56
		c10.7-12.9,21.8-26.3,30.3-41.5c2.8-5,5.9-11.8,9.5-19.7c19.6-43.4,41.8-84.8,78.1-73.5c9.2,2.9,21.7,16.4,28.8,64.5
		c5.3,35.8,6.1,80.3,6.7,116c0.3,14.6,0.5,28.3,1,39.8c3.6,81.3-3.4,164.1-11.5,260l-1.1,12.9c-2,23.3-3,46.4-3.9,68.8
		c-2.1,48.5-4,94.3-16.3,117.8c-7.8,14.9-25.4,27.1-42.4,38.9c-8.4,5.8-16.6,11.5-23.6,17.5c18.5-33.6,30.9-73.4,34.9-113.9
		c5.9-59.6-6.5-117.1-34.9-161.7c-16.3-25.7-54.2-54.8-98.8-75.9c-29.4-13.9-86.9-36.1-143.7-29c-0.5,0-0.9,0-1.4,0.1
		c-59.2,8-109,34.5-140.1,74.6c-21.3,27.6-37.2,64.1-45.9,105.6c-8.4,39.9-9.8,82.6-4.1,123.4c9.7,69.9,38.5,125.8,81.1,157.3
		c24.2,17.9,52.6,30.2,84.3,36.5c15.6,3.1,31.9,4.6,48.5,4.6c14.6,0,29.3-1.2,43.9-3.6c63.6-10.4,119.9-41.5,154.5-85.3
		c0.9-1.1,1.8-2.3,2.7-3.4c0.2,0.8,0.5,1.6,1,2.3c1.2,2,3.3,3.4,5.6,3.7c9.4,1.4,18.5-5.3,28.9-13c15.7-11.6,28.2-19.6,41-14.7
		c3.5,22.1-13.3,33.5-40.8,49.2c-10.9,6.2-21.3,12.1-29.2,19.5c-2,1.9-3,4.7-2.4,7.4c0.5,2.7,2.5,5,5.1,5.9
		c32,11.8,67.6-2,102.1-15.4c36.4-14.1,70.9-27.5,101.2-13.8c-16.1,34.2-51.7,49.6-89.2,65.8c-26.6,11.5-54.1,23.4-74.6,42.7
		c-2.5,2.3-3.2,6-1.8,9.1c11.2,25.4,39.2,21.9,61.7,19.1c9.1-1.1,17.7-2.2,25.2-1.8c38.6,2.2,75.3,15.9,105.3,27.6
		c-30.3,17.4-65.5,20.2-102.4,23.3c-31.8,2.6-64.7,5.3-94.2,18.2c-23.5,10.3-53.7,49.6-75.7,78.3l-3.2,4.2
		c-8.2,10.8-16.8,21.3-25.1,31.5c-16.8,20.7-32.6,40.2-42.9,57.8c-26.3,45.3-47.6,98.6-65,163c-15.5,57.2-27.5,121.9-36.8,198
		c-17.3,141.1-22.4,301.8-27.4,457.2C2618.5,2114.7,2616.5,2177.2,2613.8,2238.2z M2862.1,676.2c-3,37.3-16.2,73.4-38.1,104.4
		c-48.7,68.8-131.4,102.3-221.3,89.6c-45.8-14.7-85.7-49.9-109.4-96.7c-13.1-25.8-20.9-53.8-23.1-83.1c-2.4-31,1.6-62,11.9-92.1
		c9.9-29.4,31.8-59.3,60-82.2c30.4-24.6,66.4-39.9,101.6-43c38.7-3.4,80.7,4.5,118,22.2c35.3,16.7,63.1,40.9,76.4,66.3
		c0.2,0.3,0.4,0.7,0.6,1C2857.1,598.1,2865.2,637.4,2862.1,676.2z"/>
</g>
</svg>
